HIERARCHY
ROOT RootJoint
{
    OFFSET   0.000000   0.000000   0.000000
    CHANNELS 6 Xposition Yposition Zposition Xrotation Yrotation Zrotation
    JOINT pelvis_lowerback
    {
        OFFSET   0.000000   0.093605   0.000000
        CHANNELS 3 Xrotation Yrotation Zrotation
        JOINT lowerback_torso
        {
            OFFSET   0.000000   0.100000   0.000000
            CHANNELS 3 Xrotation Yrotation Zrotation
            JOINT torso_head
            {
                OFFSET   0.000000   0.282350   0.000000
                CHANNELS 3 Xrotation Yrotation Zrotation
                End Site
                {
                    OFFSET   0.000000   0.192650   0.000000
                }
            }
            JOINT rTorso_Clavicle
            {
                OFFSET  -0.001000   0.157500   0.000000
                CHANNELS 3 Xrotation Yrotation Zrotation
                JOINT rShoulder
                {
                    OFFSET  -0.117647   0.000000   0.000000
                    CHANNELS 3 Xrotation Yrotation Zrotation
                    JOINT rElbow
                    {
                        OFFSET  -0.245000   0.000000   0.000000
                        CHANNELS 3 Xrotation Yrotation Zrotation
                        JOINT rWrist
                        {
                            OFFSET  -0.240000   0.000000   0.000000
                            CHANNELS 3 Xrotation Yrotation Zrotation
                            End Site
                            {
                                OFFSET  -0.116353  -0.002500   0.000000
                            }
                        }
                    }
                }
            }
            JOINT lTorso_Clavicle
            {
                OFFSET   0.001000   0.157500   0.000000
                CHANNELS 3 Xrotation Yrotation Zrotation
                JOINT lShoulder
                {
                    OFFSET   0.117647   0.000000   0.000000
                    CHANNELS 3 Xrotation Yrotation Zrotation
                    JOINT lElbow
                    {
                        OFFSET   0.245000   0.000000   0.000000
                        CHANNELS 3 Xrotation Yrotation Zrotation
                        JOINT lWrist
                        {
                            OFFSET   0.240000   0.000000   0.000000
                            CHANNELS 3 Xrotation Yrotation Zrotation
                            End Site
                            {
                                OFFSET   0.116353  -0.002500   0.000000
                            }
                        }
                    }
                }
            }
        }
    }
    JOINT rHip
    {
        OFFSET  -0.100000  -0.051395   0.000000
        CHANNELS 3 Xrotation Yrotation Zrotation
        JOINT rKnee
        {
            OFFSET   0.000000  -0.410000   0.000000
            CHANNELS 3 Xrotation Yrotation Zrotation
            JOINT rAnkle
            {
                OFFSET   0.000000  -0.390000   0.000000
                CHANNELS 3 Xrotation Yrotation Zrotation
                JOINT rToeJoint
                {
                    OFFSET   0.000000  -0.050000   0.130000
                    CHANNELS 3 Xrotation Yrotation Zrotation
                    End Site
                    {
                        OFFSET  -0.010000   0.002000   0.060000
                    }
                }
            }
        }
    }
    JOINT lHip
    {
        OFFSET   0.100000  -0.051395   0.000000
        CHANNELS 3 Xrotation Yrotation Zrotation
        JOINT lKnee
        {
            OFFSET   0.000000  -0.410000   0.000000
            CHANNELS 3 Xrotation Yrotation Zrotation
            JOINT lAnkle
            {
                OFFSET   0.000000  -0.390000   0.000000
                CHANNELS 3 Xrotation Yrotation Zrotation
                JOINT lToeJoint
                {
                    OFFSET   0.000000  -0.050000   0.130000
                    CHANNELS 3 Xrotation Yrotation Zrotation
                    End Site
                    {
                        OFFSET   0.010000   0.002000   0.060000
                    }
                }
            }
        }
    }
}
MOTION
Frames: 17
Frame Time:   0.008333
 -2.376719   0.925631   3.975860   0.000000   0.000000   0.000000   0.000000   0.000000   0.000000   0.000000   0.000000   0.000000   0.000000   0.000000   0.000000   0.000000   0.000000   0.000000   0.000000   0.000000   0.000000   0.000000   0.000000   0.000000   0.000000   0.000000   0.000000   0.000000   0.000000   0.000000   0.000000   0.000000   0.000000   0.000000   0.000000   0.000000   0.000000   0.000000   0.000000   0.000000   0.000000   0.000000   0.000000   0.000000   0.000000   0.000000   0.000000   0.000000   0.000000   0.000000   0.000000   0.000000   0.000000   0.000000   0.000000   0.000000   0.000000   0.000000   0.000000   0.000000   0.000000   0.000000   0.000000
 -2.377024   0.925692   3.975233  -0.685222  -0.433408  -0.086531   0.971244   0.196523   0.058070  -0.066895  -0.181031  -0.070791  -0.010016  -0.372771   0.271919  -0.223961   0.002146  -0.564710  -0.476366   0.170659   2.599705   0.058839   3.499714   0.012960   0.035467  -1.888951  -2.212738   0.113312   0.502475   0.284895   0.175795   0.574608  -2.275466   0.065563  -3.581544   0.017538   0.090137   1.427021   2.648139   0.076031  -0.939232   0.026040   1.631917   0.000471  -0.019563  -1.528764  -0.789428  -0.318071   0.159243   0.000532  -0.003007   0.269117   0.411373   0.304711   1.658379  -0.003192  -0.000267  -1.220397   0.987381  -0.158000   0.180923  -0.000096   0.001521
 -2.377549   0.925851   3.974459  -1.487018  -1.110691  -0.176952   1.918847   0.448823   0.069924  -0.026831  -0.270654  -0.175895   0.028385  -0.747700   0.548234  -0.437086   0.237366  -0.589522  -0.975802   0.577225   5.600573   0.135001   7.166787   0.024325   0.054851  -2.681017  -3.771575   0.230201   0.898333  -0.028260   0.348302   0.997029  -4.870540   0.153717  -7.278932   0.032028   0.195344   1.951414   4.678308   0.173489  -1.893975  -0.054354   3.353540   0.000874  -0.040281  -2.958917  -1.541829  -0.639676   0.255486   0.000804  -0.004415   0.658328   0.829993   0.776897   3.468404  -0.008953  -0.003901  -2.347134   1.928350  -0.280184   0.336744  -0.000447   0.002150
 -2.378214   0.925782   3.973569  -2.286676  -1.884979  -0.266551   2.799185   0.717622   0.039787   0.022666  -0.304433  -0.307586   0.062958  -1.101371   0.804385  -0.634917   0.623069  -0.207818  -1.475826   1.062557   8.710566   0.210833  10.891045   0.034079   0.079104  -2.989274  -4.628647   0.345915   1.163282  -0.741143   0.518081   1.301604  -7.606903   0.245966 -11.011258   0.043395   0.300348   2.130052   5.996711   0.248313  -2.800546  -0.237208   4.977937   0.000982  -0.056303  -4.296712  -2.240100  -0.960237   0.342775   0.001025  -0.005357   1.074408   1.226353   1.365076   5.220345  -0.015698  -0.007973  -3.392788   2.810157  -0.374825   0.488723  -0.000942   0.002409
 -2.378973   0.925250   3.972583  -3.057221  -2.679149  -0.356070   3.619461   0.981479  -0.024444   0.066056  -0.313224  -0.461044   0.084985  -1.432621   1.042031  -0.817504   1.088424   0.429257  -1.972254   1.567424  11.826147   0.278057  14.644338   0.041961   0.104567  -3.074708  -4.977241   0.459478   1.326765  -1.704401   0.686948   1.515361 -10.381821   0.332755 -14.764420   0.053251   0.401514   2.143019   6.764774   0.292205  -3.652826  -0.502953   6.486346   0.000873  -0.067110  -5.550153  -2.886280  -1.277724   0.416638   0.001164  -0.005780   1.485450   1.602113   2.039369   6.875681  -0.022367  -0.010940  -4.367101   3.635860  -0.446519   0.626527  -0.001443   0.002456
 -2.379792   0.924085   3.971523  -3.792114  -3.455169  -0.445517   4.389784   1.230274  -0.117141   0.107146  -0.312841  -0.632489   0.096327  -1.742401   1.263320  -0.985040   1.590435   1.216071  -2.460095   2.061274  14.880662   0.332904  18.413017   0.047748   0.127148  -3.053763  -4.982169   0.569784   1.415349  -2.813752   0.854975   1.659772 -13.126456   0.409352 -18.530739   0.062741   0.497221   2.066679   7.141229   0.306151  -4.450452  -0.832727   7.884996   0.000657  -0.073417  -6.724697  -3.483602  -1.590219   0.478820   0.001231  -0.005823   1.879201   1.958789   2.777357   8.429058  -0.028313  -0.012450  -5.276300   4.408735  -0.498996   0.749544  -0.001880   0.002398
 -2.380647   0.922168   3.970409  -4.489303  -4.195425  -0.534216   5.118253   1.460313  -0.234186   0.151133  -0.310472  -0.819350   0.100205  -2.031917   1.469703  -1.138407   2.104172   2.078843  -2.935270   2.529288  17.830878   0.374332  22.190162   0.051441   0.145178  -2.982537  -4.766125   0.675697   1.448837  -3.996462   1.021229   1.750879 -15.795686   0.473988 -22.305674   0.072482   0.586686   1.941283   7.249320   0.292863  -5.194743  -1.210318   9.182518   0.000411  -0.076169  -7.825158  -4.035437  -1.896044   0.531739   0.001244  -0.005622   2.249794   2.296940   3.560636   9.882674  -0.033195  -0.012662  -6.125418   5.131810  -0.535396   0.859264  -0.002223   0.002291
 -2.381363   0.919418   3.968760  -4.945784  -4.969021  -0.856451   5.683434   1.548364  -0.031000   0.179733  -0.135198  -0.990468   0.038434  -2.277069   1.671160  -1.322169   2.530858   2.570279  -3.088181   3.194017  20.705665   0.401321  25.975398   0.040791   0.205222  -2.945416  -4.318930   0.842846   1.534078  -4.807636   0.974597   1.650581 -18.659267   0.516889 -26.059118   0.079486   0.657422   1.914684   6.901789  -0.319517  -6.206550  -1.302475  11.360637  -0.003484  -0.095774  -8.813623  -4.721265  -2.003904   0.593200   0.001165  -0.005842   2.581788   2.895934   4.390732  10.400333  -0.029353  -0.010215  -6.834526   6.005412  -0.527253  -1.338174   0.008970  -0.012138
 -2.381848   0.917485   3.966693  -5.404382  -5.769005  -1.254421   6.319879   1.626905   0.232008   0.250102   0.040859  -1.111929  -0.025232  -2.504050   1.874915  -1.504255   2.988762   3.048086  -3.268090   3.851038  23.383506   0.420411  29.771210   0.028975   0.279807  -2.854762  -3.908039   0.995072   1.555559  -5.625696   0.923020   1.517859 -21.357086   0.548944 -29.820961   0.092107   0.720816   1.870382   6.512156  -1.092289  -7.198387  -1.263853  13.414811  -0.009900  -0.109098  -9.703218  -5.379681  -2.088769   0.733853   0.001102  -0.007737   2.960805   3.373486   4.734578  10.719947  -0.023779  -0.008946  -8.053270   6.631184  -0.755094  -0.954417   0.008032  -0.008824
 -2.382655   0.916978   3.964805  -5.952754  -6.770395  -1.449838   6.999796   1.761511   0.221215   0.401440   0.253752  -1.292619  -0.070523  -2.714016   2.069670  -1.670205   3.472926   3.600285  -3.460136   4.495932  25.956413   0.433831  33.579316   0.018291   0.356295  -2.708933  -3.447077   1.140390   1.553704  -6.387764   0.871101   1.384994 -23.856575   0.573504 -33.575583   0.107884   0.782511   1.838778   6.152320  -1.732272  -8.081381  -1.360344  15.360059  -0.017900  -0.118926 -10.557217  -5.974512  -2.207382   0.852240   0.000920  -0.008797   3.230907   3.770714   4.856760  11.387693  -0.019940  -0.010296  -8.402378   7.223805  -0.771101  -0.639726   0.006270  -0.007102
 -2.383736   0.916631   3.963139  -6.463930  -7.691298  -1.756489   7.611605   1.841805   0.313509   0.554575   0.422244  -1.444584  -0.105787  -2.911978   2.240065  -1.819683   3.927451   4.055324  -3.656043   5.096837  28.343234   0.435883  37.391056   0.011382   0.427731  -2.546913  -2.935121   1.280533   1.528280  -7.059145   0.822434   1.245377 -26.184737   0.588383 -37.340851   0.124088   0.844913   1.774845   5.765270  -2.275384  -8.931218  -1.267055  17.189985  -0.025581  -0.122272 -11.359729  -6.527428  -2.327523   0.938288   0.000689  -0.008802   3.472827   4.280530   5.131561  12.000687  -0.016880  -0.010139  -8.728641   7.941170  -0.720172  -0.329031   0.004574  -0.004878
 -2.384966   0.916317   3.961646  -6.926927  -8.540637  -2.080360   8.171471   1.883827   0.415906   0.690642   0.546279  -1.575866  -0.138921  -3.097614   2.400518  -1.958073   4.344658   4.437571  -3.855991   5.647732  30.547522   0.428600  41.202986   0.007930   0.495909  -2.388950  -2.466062   1.406464   1.480770  -7.645514   0.769027   1.102046 -28.332268   0.595848 -41.112365   0.140527   0.909681   1.681964   5.418645  -2.757064  -9.733612  -1.110643  18.913333  -0.031934  -0.120938 -12.111419  -7.040284  -2.447769   1.008949   0.000480  -0.008382   3.687944   4.792956   5.440334  12.552178  -0.014366  -0.009496  -9.026875   8.644828  -0.654326  -0.234309   0.003504  -0.003608
 -2.386286   0.915997   3.960315  -7.342851  -9.345165  -2.396084   8.685345   1.904222   0.513079   0.808165   0.640094  -1.697723  -0.169546  -3.271310   2.550910  -2.092175   4.733722   4.756291  -4.062691   6.159193  32.583505   0.411941  44.904126   0.007415   0.564357  -2.189125  -2.058123   1.516549   1.415971  -8.154780   0.709583   0.957765 -30.310467   0.598501 -44.888996   0.157591   0.976469   1.565824   5.129934  -3.189439 -10.486535  -0.930630  20.530388  -0.036728  -0.116615 -12.814823  -7.516359  -2.567312   1.071301   0.000304  -0.007809   3.879657   5.285965   5.746906  13.052293  -0.012285  -0.008765  -9.305114   9.313695  -0.583401  -0.147627   0.002654  -0.002624
 -2.387672   0.915504   3.959327  -7.587761  -9.963742  -2.601443   8.925099   1.809770   0.524816   0.976245   0.760560  -1.777214  -0.175534  -3.325849   2.648610  -2.126139   4.982162   4.900230  -4.019935   6.770565  34.210879   0.389014  48.469680  -0.006027   0.617956  -1.858465  -1.467451   1.714590   1.306440  -8.324354   0.717239   0.689601 -32.094069   0.592197 -48.674221   0.180820   0.984590   1.408116   4.547619  -3.469132 -11.090005  -0.776101  21.584180  -0.035901  -0.103025 -13.074180  -7.850265  -2.679088   1.161482   0.000148  -0.007449   3.842355   5.698448   5.985472  13.655045  -0.010636  -0.007800  -9.650114   9.945848  -0.359688  -0.036657   0.001799  -0.001678
 -2.389068   0.914940   3.958571  -7.769696 -10.557426  -2.755125   9.107356   1.720516   0.524058   1.096041   0.864687  -1.855548  -0.180367  -3.369002   2.731569  -2.167496   5.183304   4.912273  -3.998831   7.327589  35.643497   0.356493  51.803008  -0.013026   0.682298  -1.487046  -0.962584   1.889856   1.211027  -8.339204   0.705676   0.444138 -33.662419   0.577380 -52.439426   0.200410   1.003221   1.212469   4.062508  -3.675602 -11.635626  -0.638160  22.518331  -0.034194  -0.090336 -13.314808  -8.157611  -2.784169   1.272076  -0.000002  -0.007318   3.769316   6.087001   6.178850  14.226825  -0.009252  -0.006979  -9.988212  10.532462  -0.147765   0.063599   0.001162  -0.000996
 -2.390473   0.914350   3.958023  -7.900607 -11.157406  -2.879740   9.242442   1.634283   0.532921   1.169903   0.953864  -1.923031  -0.183814  -3.407637   2.804821  -2.223730   5.355998   4.837914  -4.003004   7.838488  36.919124   0.318631  54.916433  -0.013815   0.747846  -1.117044  -0.597766   2.035683   1.126388  -8.254654   0.670500   0.214950 -35.058310   0.553676 -55.971376   0.215198   1.035772   0.910435   3.737562  -3.827914 -12.142663  -0.501343  23.391124  -0.032288  -0.079390 -13.539784  -8.443563  -2.883581   1.375656  -0.000115  -0.007070   3.684128   6.454926   6.341925  14.751391  -0.008083  -0.006394 -10.316267  11.080743   0.053710   0.155673   0.000688  -0.000530
 -2.391883   0.913753   3.957659  -7.986189 -11.779730  -2.984280   9.336458   1.551342   0.557018   1.204793   1.032439  -1.974168  -0.187825  -3.443213   2.872170  -2.291485   5.505626   4.706185  -4.027283   8.307695  38.064811   0.278372  57.824058  -0.009578   0.813145  -0.755021  -0.352394   2.160381   1.055376  -8.103129   0.620545   0.008491 -36.309473   0.526119 -59.272842   0.227319   1.074002   0.582506   3.550841  -3.934747 -12.616044  -0.360974  24.214151  -0.030361  -0.070124 -13.749857  -8.709900  -2.977516   1.471960  -0.000196  -0.006752   3.594037   6.801888   6.479354  15.228580  -0.007099  -0.006043 -10.636572  11.592335   0.246270   0.239765   0.000342  -0.000238
